:FULLY-SPECIFIED
:FORCE-ALL-JOINTS-BE-3DOF
:DEGREES
544
root 7.63733 15.0502 -3.79852 -177.658 49.244 178.996
lfemur -30.141 -2.09618 -18.3188
ltibia 78.7937 -0 0
lfoot -35.8531 -4.66725 0.209114
ltoes -9.21027 0 0
rfemur -45.7205 0.950555 -5.18374
rtibia 45.1972 -0 0
rfoot 4.39415 5.06447 0.242837
rtoes -41.4269 0 0
lowerback 12.2459 0.211959 1.27122
upperback 5.50109 1.14519 6.58872
thorax -1.21902 0.766834 6.02181
lowerneck -3.29864 -16.0238 -6.27483
upperneck 10.7672 -21.6386 6.6695
head 5.15113 -10.4782 1.56925
lclavicle 6.99722e-014 4.45278e-014 0
lhumerus -45.1466 -15.0037 107.645
lradius 56.7823 -0 0
lwrist 24.7512 0 0
lhand -24.1919 -6.77708 -0.168222
lfingers 7.12502 -0 0
lthumb 2.29917 23.2984 -0.118293
rclavicle 6.99722e-014 4.45278e-014 0
rhumerus 19.2986 12.3025 -79.64
rradius 139.272 -0 0
rwrist -51.5807 0 0
rhand -27.7745 -22.5974 -0.0705136
rfingers 7.12502 -0 0
rthumb -1.16555 -52.6402 -0.0809933
545
root 7.67187 15.043 -3.7717 -177.761 49.1491 178.887
lfemur -30.0822 -1.94516 -18.0244
ltibia 78.737 -0 0
lfoot -36.1054 -5.3644 0.195913
ltoes -9.05132 0 0
rfemur -45.7133 0.867954 -4.97974
rtibia 45.5397 -0 0
rfoot 3.88886 4.65974 0.23529
rtoes -41.2233 0 0
lowerback 12.1579 0.132124 1.18538
upperback 5.48361 1.01644 6.48984
thorax -1.17679 0.697977 5.98292
lowerneck -3.16691 -15.946 -6.1806
upperneck 10.5195 -21.5405 6.73148
head 5.04652 -10.4362 1.60555
lclavicle 6.99722e-014 4.45278e-014 0
lhumerus -45.3204 -14.216 107.182
lradius 56.4432 -0 0
lwrist 25.0188 0 0
lhand -24.4082 -6.66134 -0.159095
lfingers 7.12502 -0 0
lthumb 2.08976 23.4084 -0.11254
rclavicle 6.99722e-014 4.45278e-014 0
rhumerus 19.1532 12.7241 -79.7892
rradius 138.938 -0 0
rwrist -51.0013 0 0
rhand -27.7835 -22.5196 -0.0654866
rfingers 7.12502 -0 0
rthumb -1.17446 -52.5576 -0.0751848
546
root 7.70641 15.0358 -3.74489 -177.859 49.0934 178.779
lfemur -30.0146 -1.79647 -17.7351
ltibia 78.6494 -0 0
lfoot -36.3484 -6.0453 0.180036
ltoes -8.87831 0 0
rfemur -45.7097 0.77964 -4.76057
rtibia 45.8967 -0 0
rfoot 3.39394 4.26305 0.224344
rtoes -41 0 0
lowerback 12.064 0.0521988 1.09584
upperback 5.46256 0.886809 6.38744
thorax -1.13493 0.628512 5.94248
lowerneck -3.03982 -15.8653 -6.08387
upperneck 10.2744 -21.4379 6.79037
head 4.94295 -10.3919 1.64068
lclavicle 6.99722e-014 4.45278e-014 0
lhumerus -45.4898 -13.452 106.714
lradius 56.105 -0 0
lwrist 25.2764 0 0
lhand -24.6085 -6.54161 -0.148626
lfingers 7.12502 -0 0
lthumb 1.89583 23.5213 -0.105824
rclavicle 6.99722e-014 4.45278e-014 0
rhumerus 18.9911 13.1535 -79.9358
rradius 138.585 -0 0
rwrist -50.3952 0 0
rhand -27.7831 -22.4388 -0.0600311
rfingers 7.12502 -0 0
rthumb -1.17429 -52.4715 -0.068878
547
root 7.74095 15.0286 -3.71807 -177.951 49.0772 178.676
lfemur -29.9377 -1.64933 -17.4526
ltibia 78.531 -0 0
lfoot -36.5809 -6.70377 0.161948
ltoes -8.69343 0 0
rfemur -45.7089 0.684961 -4.52713
rtibia 46.2646 -0 0
rfoot 2.91293 3.87701 0.21031
rtoes -40.7584 0 0
lowerback 11.9647 -0.0273281 1.0029
upperback 5.43819 0.757059 6.28229
thorax -1.09355 0.558857 5.90101
lowerneck -2.918 -15.7824 -5.98546
upperneck 10.034 -21.3317 6.84605
head 4.84122 -10.3457 1.67448
lclavicle 6.99722e-014 4.45278e-014 0
lhumerus -45.652 -12.7169 106.242
lradius 55.77 -0 0
lwrist 25.5234 0 0
lhand -24.793 -6.41882 -0.137044
lfingers 7.12502 -0 0
lthumb 1.71702 23.6364 -0.0982864
rclavicle 6.99722e-014 4.45278e-014 0
rhumerus 18.8178 13.586 -80.0782
rradius 138.218 -0 0
rwrist -49.7713 0 0
rhand -27.7748 -22.3557 -0.0542687
rfingers 7.12502 -0 0
rthumb -1.16643 -52.3828 -0.0622139
548
root 7.77549 15.0214 -3.69125 -178.037 49.101 178.576
lfemur -29.8514 -1.50299 -17.1788
ltibia 78.3819 -0 0
lfoot -36.8018 -7.33363 0.14218
ltoes -8.49886 0 0
rfemur -45.71 0.583262 -4.28036
rtibia 46.6398 -0 0
rfoot 2.44935 3.50424 0.193585
rtoes -40.5 0 0
lowerback 11.8605 -0.105965 0.906836
upperback 5.41074 0.627967 6.17513
thorax -1.05277 0.489431 5.85902
lowerneck -2.80209 -15.6981 -5.88617
upperneck 9.80031 -21.2231 6.89841
head 4.74212 -10.2982 1.70678
lclavicle 6.99722e-014 4.45278e-014 0
lhumerus -45.804 -12.0157 105.767
lradius 55.44 -0 0
lwrist 25.7595 0 0
lhand -24.9623 -6.29396 -0.124583
lfingers 7.12502 -0 0
lthumb 1.55293 23.7529 -0.0900768
rclavicle 6.99722e-014 4.45278e-014 0
rhumerus 18.6386 14.0175 -80.2147
rradius 137.844 -0 0
rwrist -49.1386 0 0
rhand -27.7598 -22.2708 -0.048318
rfingers 7.12502 -0 0
rthumb -1.15223 -52.2921 -0.0553302
549
root 7.81003 15.0142 -3.66444 -178.115 49.1651 178.481
lfemur -29.755 -1.35669 -16.9154
ltibia 78.2022 -0 0
lfoot -37.0098 -7.92869 0.121321
ltoes -8.2968 0 0
rfemur -45.7121 0.473877 -4.02117
rtibia 47.0187 -0 0
rfoot 2.00673 3.14734 0.174642
rtoes -40.2266 0 0
lowerback 11.7521 -0.18322 0.807929
upperback 5.38043 0.500308 6.0667
thorax -1.01271 0.420647 5.81702
lowerneck -2.69273 -15.6131 -5.78685
upperneck 9.57523 -21.1131 6.94738
head 4.64644 -10.2497 1.73744
lclavicle 6.99722e-014 4.45278e-014 0
lhumerus -45.9429 -11.3535 105.291
lradius 55.1173 -0 0
lwrist 25.9844 0 0
lhand -25.1167 -6.16798 -0.111484
lfingers 7.12502 -0 0
lthumb 1.40316 23.8702 -0.0813473
rclavicle 6.99722e-014 4.45278e-014 0
rhumerus 18.459 14.4435 -80.3435
rradius 137.467 -0 0
rwrist -48.5061 0 0
rhand -27.7397 -22.1847 -0.0422939
rfingers 7.12502 -0 0
rthumb -1.13306 -52.2003 -0.0483606
550
root 7.84457 15.007 -3.63762 -178.187 49.27 178.391
lfemur -29.6484 -1.20963 -16.6644
ltibia 77.992 -0 0
lfoot -37.2038 -8.48278 0.100009
ltoes -8.08943 0 0
rfemur -45.7144 0.356137 -3.7505
rtibia 47.3977 -0 0
rfoot 1.58858 2.80889 0.154023
rtoes -39.9395 0 0
lowerback 11.6398 -0.258597 0.706455
upperback 5.34749 0.374857 5.95777
thorax -0.973477 0.352923 5.77554
lowerneck -2.59056 -15.5281 -5.68832
upperneck 9.36078 -21.0028 6.9929
head 4.55499 -10.2008 1.76628
lclavicle 6.99722e-014 4.45278e-014 0
lhumerus -46.0655 -10.7353 104.816
lradius 54.804 -0 0
lwrist 26.1976 0 0
lhand -25.2567 -6.04183 -0.0979905
lfingers 7.12502 -0 0
lthumb 1.26734 23.9874 -0.0722531
rclavicle 6.99722e-014 4.45278e-014 0
rhumerus 18.2845 14.8597 -80.4627
rradius 137.094 -0 0
rwrist -47.8827 0 0
rhand -27.7159 -22.0982 -0.0363068
rfingers 7.12502 -0 0
rthumb -1.1103 -52.108 -0.0414346
551
root 7.87911 14.9998 -3.6108 -178.249 49.4159 178.308
lfemur -29.5311 -1.06104 -16.4275
ltibia 77.7514 -0 0
lfoot -37.3827 -8.98973 0.078916
ltoes -7.87894 0 0
rfemur -45.716 0.229364 -3.46927
rtibia 47.7732 -0 0
rfoot 1.19842 2.49147 0.132327
rtoes -39.6403 0 0
lowerback 11.5242 -0.331599 0.602688
upperback 5.31212 0.252391 5.84907
thorax -0.935203 0.286671 5.73508
lowerneck -2.49624 -15.4439 -5.5914
upperneck 9.15891 -20.8934 7.03492
head 4.46855 -10.152 1.79317
lclavicle 6.99722e-014 4.45278e-014 0
lhumerus -46.1686 -10.1659 104.342
lradius 54.5021 -0 0
lwrist 26.3988 0 0
lhand -25.3826 -5.91647 -0.0843521
lfingers 7.12502 -0 0
lthumb 1.14508 24.1039 -0.0629517
rclavicle 6.99722e-014 4.45278e-014 0
rhumerus 18.121 15.2618 -80.5702
rradius 136.73 -0 0
rwrist -47.2773 0 0
rhand -27.6898 -22.0119 -0.0304625
rfingers 7.12502 -0 0
rthumb -1.08531 -52.016 -0.0346764
552
root 7.91366 14.9926 -3.58399 -178.303 49.6034 178.233
lfemur -29.4028 -0.910116 -16.2064
ltibia 77.4805 -0 0
lfoot -37.5454 -9.44336 0.0587396
ltoes -7.66753 0 0
rfemur -45.716 0.0928683 -3.17843
rtibia 48.1415 -0 0
rfoot 0.839736 2.19765 0.1102
rtoes -39.3306 0 0
lowerback 11.4059 -0.401726 0.496898
upperback 5.27454 0.13369 5.74134
thorax -0.898011 0.222307 5.69617
lowerneck -2.41041 -15.3613 -5.49693
upperneck 8.97158 -20.7858 7.07342
head 4.3879 -10.1036 1.81795
lclavicle 6.99722e-014 4.45278e-014 0
lhumerus -46.2488 -9.65026 103.872
lradius 54.2136 -0 0
lwrist 26.5875 0 0
lhand -25.4949 -5.79287 -0.0708188
lfingers 7.12502 -0 0
lthumb 1.03597 24.219 -0.0536016
rclavicle 6.99722e-014 4.45278e-014 0
rhumerus 17.9739 15.6457 -80.6639
rradius 136.382 -0 0
rwrist -46.6989 0 0
rhand -27.6629 -21.9264 -0.0248618
rfingers 7.12502 -0 0
rthumb -1.05947 -51.9251 -0.0282056
553
root 7.9482 14.9854 -3.55717 -178.346 49.8328 178.166
lfemur -29.263 -0.756047 -16.0031
ltibia 77.1794 -0 0
lfoot -37.6908 -9.83752 0.0401873
ltoes -7.45737 0 0
rfemur -45.7137 -0.0540466 -2.8789
rtibia 48.4992 -0 0
rfoot 0.51603 1.93 0.0883184
rtoes -39.012 0 0
lowerback 11.2854 -0.468476 0.389349
upperback 5.23495 0.0195349 5.63532
thorax -0.862023 0.160241 5.65931
lowerneck -2.33375 -15.2809 -5.40575
upperneck 8.80076 -20.6812 7.10838
head 4.31385 -10.0561 1.84048
lclavicle 6.99722e-014 4.45278e-014 0
lhumerus -46.3026 -9.19321 103.407
lradius 53.9408 -0 0
lwrist 26.7635 0 0
lhand -25.5941 -5.67197 -0.0576418
lfingers 7.12502 -0 0
lthumb 0.939644 24.3318 -0.0443618
rclavicle 6.99722e-014 4.45278e-014 0
rhumerus 17.8492 16.0071 -80.7415
rradius 136.053 -0 0
rwrist -46.1564 0 0
rhand -27.6364 -21.8424 -0.0196009
rfingers 7.12502 -0 0
rthumb -1.03414 -51.8361 -0.0221366
